<?xml version="1.0" encoding="UTF-8"?>
<svg xmlns="http://www.w3.org/2000/svg" width="128" height="128" viewBox="0 0 128 128">
  <defs>
    <linearGradient id="bg" x1="0" y1="0" x2="0" y2="1">
      <stop offset="0%" stop-color="#62a0ea"/>
      <stop offset="100%" stop-color="#1a5fb4"/>
    </linearGradient>
  </defs>
  <!-- Rounded square background -->
  <rect x="4" y="4" width="120" height="120" rx="28" ry="28" fill="url(#bg)" stroke="#164a8a" stroke-width="1"/>
  <!-- Shopping bag body -->
  <path d="M 34 50 L 34 100 Q 34 108 42 108 L 86 108 Q 94 108 94 100 L 94 50 Z" fill="#ffffff" opacity="0.95"/>
  <!-- Bag handles -->
  <path d="M 50 50 L 50 38 Q 50 26 64 26 Q 78 26 78 38 L 78 50" fill="none" stroke="#1a5fb4" stroke-width="5" stroke-linecap="round"/>
  <!-- Homebrew beer mug icon -->
  <rect x="52" y="62" width="24" height="30" rx="4" fill="#1a5fb4"/>
  <rect x="76" y="68" width="6" height="18" rx="3" fill="none" stroke="#1a5fb4" stroke-width="2.5"/>
  <!-- Foam -->
  <ellipse cx="58" cy="62" rx="5" ry="4" fill="#e8d44d"/>
  <ellipse cx="68" cy="62" rx="5" ry="4" fill="#e8d44d"/>
  <ellipse cx="63" cy="60" rx="4" ry="3" fill="#f5e663"/>
</svg>
